# xmcd
#
# Track frame offsets: 
#        150
#        12468
#        24083
#        34438
#        44765
#        55330
#        66954
#        78451
#        88048
#        102055
#        113246
#        121485
#        130594
#        143128
#        151726
#        163397
#        172572
#        184320
#        201101
#        216027
#        227730
#        237356
#        248128
#        260536
#        274008
#        285756
#        298934
#        310288
#
# Disc length: 4279 seconds
#
# Revision: 0
# Processed by: cddbd v1.5.2PL0 Copyright (c) Steve Scherf et al.
# Submitted via: ExactAudioCopy v0.95b3
#
DISCID=9110b51c
DTITLE=Various  - Psychedelic Sixties French EP Collection CD-2
DYEAR=1900
DGENRE=
TTITLE0=The The People (EP2) - St John's shop
TTITLE1=The The People (EP2) - In the past
TTITLE2=The The People (EP2) - Declaration of independence
TTITLE3=The The People (EP2) - Lovin's son of a gun
TTITLE4=The Music Explosion - Little bit o'soul
TTITLE5=The Music Explosion - I see the light
TTITLE6=The Music Explosion - Let yourself go
TTITLE7=The Music Explosion - (Hey) la la la
TTITLE8=The Count Five - Psychotic reaction
TTITLE9=The Count Five - They're gonna get you
TTITLE10=The Count Five - Cant' get your lovin'
TTITLE11=The Count Five - The morning after
TTITLE12=The Shadows of Knight (EP) - Oh Yeah
TTITLE13=The Shadows of Knight (EP) - Gloria
TTITLE14=The Shadows of Knight (EP) - It always happen that way
TTITLE15=The Shadows of Knight (EP) - Dark side
TTITLE16=The Shadows of Knight (SP1 and SP2) - Gloria'69
TTITLE17=The Shadows of Knight (SP1 and SP2) - Spaniard at my door
TTITLE18=The Shadows of Knight (SP1 and SP2) - Gospel zone
TTITLE19=The Shadows of Knight (SP1 and SP2) - Bad little woman
TTITLE20=The Shakespeares (SP1 and SP2) - Burning my fingers
TTITLE21=The Shakespeares (SP1 and SP2) - Somethin' to believe in
TTITLE22=The Shakespeares (SP1 and SP2) - How does she look
TTITLE23=The Shakespeares (SP1 and SP2) - Theasure of woman's love
TTITLE24=The Syn (ex Yes) (SP1 and SP2) - Flowerman
TTITLE25=The Syn (ex Yes) (SP1 and SP2) - 14Th Color Technicolor Dream
TTITLE26=The Syn (ex Yes) (SP1 and SP2) - Created by Clive
TTITLE27=The Syn (ex Yes) (SP1 and SP2) - Grounded
EXTD=
EXTT0=
EXTT1=
EXTT2=
EXTT3=
EXTT4=
EXTT5=
EXTT6=
EXTT7=
EXTT8=
EXTT9=
EXTT10=
EXTT11=
EXTT12=
EXTT13=
EXTT14=
EXTT15=
EXTT16=
EXTT17=
EXTT18=
EXTT19=
EXTT20=
EXTT21=
EXTT22=
EXTT23=
EXTT24=
EXTT25=
EXTT26=
EXTT27=
PLAYORDER=
